<?xml version="1.0" standalone="no"?>
<!DOCTYPE svg PUBLIC "-//W3C//DTD SVG 20010904//EN"
 "http://www.w3.org/TR/2001/REC-SVG-20010904/DTD/svg10.dtd">
<svg version="1.0" xmlns="http://www.w3.org/2000/svg"
 width="512.000000pt" height="512.000000pt" viewBox="0 0 512.000000 512.000000"
 preserveAspectRatio="xMidYMid meet">

<g transform="translate(0.000000,512.000000) scale(0.100000,-0.100000)"
fill="#000000" stroke="none">
<path d="M1663 5105 c-34 -8 -95 -30 -135 -51 -68 -35 -123 -87 -749 -713
l-677 -676 -41 -85 c-24 -50 -45 -111 -51 -150 -6 -40 -10 -381 -10 -880 0
-906 0 -893 66 -1023 35 -66 90 -124 683 -720 355 -356 669 -666 697 -688 29
-22 76 -51 105 -65 112 -55 119 -55 1042 -52 l852 3 65 23 c36 13 88 37 115
54 64 40 1330 1300 1392 1386 25 34 57 95 72 135 l26 72 0 885 0 885 -26 72
c-15 40 -47 101 -72 135 -55 77 -1314 1333 -1377 1375 -61 40 -133 69 -204 82
-94 17 -1692 14 -1773 -4z m830 -849 c70 -29 67 7 67 -714 0 -357 3 -663 6
-681 10 -47 49 -81 96 -81 41 0 81 20 95 48 4 9 10 275 13 590 l5 574 33 29
c45 40 99 40 144 0 l33 -29 5 -894 c5 -940 4 -924 50 -948 35 -19 95 -12 121
14 13 13 98 154 189 312 91 158 181 304 200 324 55 55 103 75 187 75 39 0 74
-3 77 -6 3 -3 -84 -314 -194 -692 -209 -721 -230 -778 -325 -912 -52 -74 -180
-197 -258 -248 -85 -57 -197 -106 -302 -132 -507 -129 -1021 152 -1192 650
-51 149 -53 192 -53 1128 0 959 -3 919 63 950 43 21 51 21 92 1 63 -29 65 -43
65 -419 0 -228 4 -343 11 -358 19 -37 52 -57 95 -57 49 0 88 32 98 81 3 18 6
301 6 631 l0 600 34 34 c50 50 123 44 163 -15 17 -24 18 -71 21 -597 l3 -572
25 -25 c43 -43 105 -43 148 0 l25 25 3 628 3 628 25 27 c42 45 72 53 123 31z"/>
</g>
</svg>
